<?xml version="1.0" encoding="UTF-8" standalone="no"?>
<!DOCTYPE svg PUBLIC "-//W3C//DTD SVG 1.1//EN" "http://www.w3.org/Graphics/SVG/1.1/DTD/svg11.dtd">
<svg width="100%" height="100%" viewBox="0 0 1000 1000" version="1.1" xmlns="http://www.w3.org/2000/svg" xmlns:xlink="http://www.w3.org/1999/xlink" xml:space="preserve" xmlns:serif="http://www.serif.com/" style="fill-rule:evenodd;clip-rule:evenodd;stroke-linejoin:round;stroke-miterlimit:2;">
    <g id="Icon" transform="matrix(1.94682,0,0,1.94682,-424.739531,-402.018343)">
        <path d="M731.828,598.677C731.558,662.183 679.917,713.658 616.348,713.658L333.652,713.658C270.083,713.658 218.442,662.183 218.172,598.677C218.254,598.677 218.338,598.656 218.415,598.613C220.937,597.204 223.48,595.782 225.744,593.987C232.041,588.996 266.965,561.314 282.12,511.345C284.647,562.357 326.865,603 378.5,603L571.5,603C623.134,603 665.351,562.359 667.88,511.347C687.415,576.05 731.601,598.622 731.601,598.622C731.674,598.659 731.752,598.677 731.828,598.677Z" style="fill:rgb(23,94,169);"/>
        <g transform="matrix(1,0,0,1,0,3)">
            <path d="M667.954,509.502C667.985,508.505 668,507.504 668,506.5L668,313.5C668,292.201 661.085,272.504 649.379,256.534C697.041,270.757 731.829,314.955 731.829,367.215L731.829,597.611C728.39,595.758 686.883,572.29 668.48,509.859C668.411,509.626 668.187,509.48 667.954,509.502Z" style="fill:rgb(37,119,204);"/>
        </g>
        <g transform="matrix(1,0,0,1,0,3)">
            <path d="M218.171,597.604L218.171,367.215C218.171,314.955 252.959,270.757 300.621,256.534C288.915,272.504 282,292.201 282,313.5L282,506.5C282,507.504 282.015,508.505 282.046,509.502C281.813,509.48 281.589,509.626 281.52,509.859C266.656,560.284 231.432,588.203 225.123,593.203C222.974,594.907 220.566,596.266 218.171,597.604Z" style="fill:rgb(37,119,205);"/>
        </g>
        <g transform="matrix(1.020725,0,0,1.020725,-9.84456,63.974093)">
            <path d="M668,242.5L668,435.5C668,488.76 624.76,532 571.5,532L378.5,532C325.24,532 282,488.76 282,435.5L282,242.5C282,189.24 325.24,146 378.5,146L571.5,146C624.76,146 668,189.24 668,242.5Z" style="fill:rgb(47,135,209);"/>
        </g>
        <g transform="matrix(0.531448,0,0,0.531448,464.301175,410)">
            <g transform="matrix(1,0,0,1,-312.5,-312.5)">
                <g transform="matrix(4.166667,0,0,4.166667,0,0)">
                    <rect x="0" y="0" width="150" height="150" style="fill:none;fill-rule:nonzero;"/>
                </g>
                <g transform="matrix(4.166667,0,0,4.166667,0,0)">
                    <path d="M109.49,119.02L134.69,119.02L134.69,64.31L79.98,64.31L79.98,89.51L109.49,89.51L109.49,119.02Z" style="fill:white;fill-rule:nonzero;"/>
                </g>
                <g transform="matrix(4.166667,0,0,4.166667,0,0)">
                    <path d="M79.46,110.93C59.876,110.93 43.76,94.814 43.76,75.23C43.76,55.646 59.876,39.53 79.46,39.53L79.46,14.22C45.54,14.22 18,41.63 18,75.23C18,108.83 45.62,136.23 79.43,136.23L79.46,110.93Z" style="fill:white;fill-rule:nonzero;"/>
                </g>
            </g>
        </g>
    </g>
</svg>
